# xmcd
#
# Track frame offsets: 
#        150
#        11405
#        19937
#        38262
#        58012
#        71812
#        83852
#        102617
#        112010
#        124360
#        136650
#        147970
#        158372
#        170420
#        185435
#
# Disc length: 2670 seconds
#
# Revision: 1
# Processed by: cddbd v1.5.2PL0 Copyright (c) Steve Scherf et al.
# Submitted via: ExactAudioCopyFreeDBPlugin 1.0
#
DISCID=c60a6c0f
DTITLE=Various Artist - It´s Now Or Never - The Tribute To Elvis
DYEAR=1994
DGENRE=Rock and Roll
TTITLE0=Travis Tritt - Lawdy Miss Claudy
TTITLE1=Tanya Tucker - Teddy Bear
TTITLE2=Dwight Yoakam - Mystery Train
TTITLE3=The Mavericks - Love Me
TTITLE4=Melissa Etheridge - Burning Love
TTITLE5=Michael Hutchence - Baby Let´s Play House
TTITLE6=Aaaron Neville - Young And Beautiful
TTITLE7=Marty Stuart - Don´t Be Cruel
TTITLE8=Billy Ray Cyrus - One Night
TTITLE9=Chris Isaak - Blue Moon
TTITLE10=Michael Bolton - Jailhouse Rock
TTITLE11=Faith Hill - Trying To Get To You
TTITLE12=Bryan Adams - Hound Dog
TTITLE13=Wet Wet Wet - It´s Now Or Never
TTITLE14=Tony Bennett - Love Me Tender
EXTD=
EXTT0=
EXTT1=
EXTT2=
EXTT3=
EXTT4=
EXTT5=
EXTT6=
EXTT7=
EXTT8=
EXTT9=
EXTT10=
EXTT11=
EXTT12=
EXTT13=
EXTT14=
PLAYORDER=
